<svg id="visual" viewBox="0 0 1920 1080" width="1920" height="1080" xmlns="http://www.w3.org/2000/svg" xmlns:xlink="http://www.w3.org/1999/xlink" version="1.1"><rect x="0" y="0" width="1920" height="1080" fill="#001220"></rect><path d="M0 392L45.7 427.3C91.3 462.7 182.7 533.3 274.2 544.7C365.7 556 457.3 508 548.8 473.3C640.3 438.7 731.7 417.3 823 400.2C914.3 383 1005.7 370 1097 378.2C1188.3 386.3 1279.7 415.7 1371.2 427.7C1462.7 439.7 1554.3 434.3 1645.8 423.7C1737.3 413 1828.7 397 1874.3 389L1920 381L1920 1081L1874.3 1081C1828.7 1081 1737.3 1081 1645.8 1081C1554.3 1081 1462.7 1081 1371.2 1081C1279.7 1081 1188.3 1081 1097 1081C1005.7 1081 914.3 1081 823 1081C731.7 1081 640.3 1081 548.8 1081C457.3 1081 365.7 1081 274.2 1081C182.7 1081 91.3 1081 45.7 1081L0 1081Z" fill="#132949"></path><path d="M0 482L45.7 497.5C91.3 513 182.7 544 274.2 547.7C365.7 551.3 457.3 527.7 548.8 532.3C640.3 537 731.7 570 823 578.2C914.3 586.3 1005.7 569.7 1097 563.5C1188.3 557.3 1279.7 561.7 1371.2 545.8C1462.7 530 1554.3 494 1645.8 471.5C1737.3 449 1828.7 440 1874.3 435.5L1920 431L1920 1081L1874.3 1081C1828.7 1081 1737.3 1081 1645.8 1081C1554.3 1081 1462.7 1081 1371.2 1081C1279.7 1081 1188.3 1081 1097 1081C1005.7 1081 914.3 1081 823 1081C731.7 1081 640.3 1081 548.8 1081C457.3 1081 365.7 1081 274.2 1081C182.7 1081 91.3 1081 45.7 1081L0 1081Z" fill="#102643"></path><path d="M0 543L45.7 549.8C91.3 556.7 182.7 570.3 274.2 589.3C365.7 608.3 457.3 632.7 548.8 637.7C640.3 642.7 731.7 628.3 823 613.5C914.3 598.7 1005.7 583.3 1097 599.8C1188.3 616.3 1279.7 664.7 1371.2 659.5C1462.7 654.3 1554.3 595.7 1645.8 597.7C1737.3 599.7 1828.7 662.3 1874.3 693.7L1920 725L1920 1081L1874.3 1081C1828.7 1081 1737.3 1081 1645.8 1081C1554.3 1081 1462.7 1081 1371.2 1081C1279.7 1081 1188.3 1081 1097 1081C1005.7 1081 914.3 1081 823 1081C731.7 1081 640.3 1081 548.8 1081C457.3 1081 365.7 1081 274.2 1081C182.7 1081 91.3 1081 45.7 1081L0 1081Z" fill="#0c223d"></path><path d="M0 602L45.7 618C91.3 634 182.7 666 274.2 687.7C365.7 709.3 457.3 720.7 548.8 718.5C640.3 716.3 731.7 700.7 823 691.7C914.3 682.7 1005.7 680.3 1097 688.8C1188.3 697.3 1279.7 716.7 1371.2 710.3C1462.7 704 1554.3 672 1645.8 665.5C1737.3 659 1828.7 678 1874.3 687.5L1920 697L1920 1081L1874.3 1081C1828.7 1081 1737.3 1081 1645.8 1081C1554.3 1081 1462.7 1081 1371.2 1081C1279.7 1081 1188.3 1081 1097 1081C1005.7 1081 914.3 1081 823 1081C731.7 1081 640.3 1081 548.8 1081C457.3 1081 365.7 1081 274.2 1081C182.7 1081 91.3 1081 45.7 1081L0 1081Z" fill="#091f38"></path><path d="M0 717L45.7 712C91.3 707 182.7 697 274.2 719.2C365.7 741.3 457.3 795.7 548.8 816.8C640.3 838 731.7 826 823 804.3C914.3 782.7 1005.7 751.3 1097 745.8C1188.3 740.3 1279.7 760.7 1371.2 766.8C1462.7 773 1554.3 765 1645.8 774.5C1737.3 784 1828.7 811 1874.3 824.5L1920 838L1920 1081L1874.3 1081C1828.7 1081 1737.3 1081 1645.8 1081C1554.3 1081 1462.7 1081 1371.2 1081C1279.7 1081 1188.3 1081 1097 1081C1005.7 1081 914.3 1081 823 1081C731.7 1081 640.3 1081 548.8 1081C457.3 1081 365.7 1081 274.2 1081C182.7 1081 91.3 1081 45.7 1081L0 1081Z" fill="#071b32"></path><path d="M0 782L45.7 795.7C91.3 809.3 182.7 836.7 274.2 856.3C365.7 876 457.3 888 548.8 888.7C640.3 889.3 731.7 878.7 823 874.5C914.3 870.3 1005.7 872.7 1097 876.7C1188.3 880.7 1279.7 886.3 1371.2 872.5C1462.7 858.7 1554.3 825.3 1645.8 812.5C1737.3 799.7 1828.7 807.3 1874.3 811.2L1920 815L1920 1081L1874.3 1081C1828.7 1081 1737.3 1081 1645.8 1081C1554.3 1081 1462.7 1081 1371.2 1081C1279.7 1081 1188.3 1081 1097 1081C1005.7 1081 914.3 1081 823 1081C731.7 1081 640.3 1081 548.8 1081C457.3 1081 365.7 1081 274.2 1081C182.7 1081 91.3 1081 45.7 1081L0 1081Z" fill="#05182d"></path><path d="M0 890L45.7 887.5C91.3 885 182.7 880 274.2 873.7C365.7 867.3 457.3 859.7 548.8 860.7C640.3 861.7 731.7 871.3 823 877.5C914.3 883.7 1005.7 886.3 1097 899.3C1188.3 912.3 1279.7 935.7 1371.2 935.3C1462.7 935 1554.3 911 1645.8 902.7C1737.3 894.3 1828.7 901.7 1874.3 905.3L1920 909L1920 1081L1874.3 1081C1828.7 1081 1737.3 1081 1645.8 1081C1554.3 1081 1462.7 1081 1371.2 1081C1279.7 1081 1188.3 1081 1097 1081C1005.7 1081 914.3 1081 823 1081C731.7 1081 640.3 1081 548.8 1081C457.3 1081 365.7 1081 274.2 1081C182.7 1081 91.3 1081 45.7 1081L0 1081Z" fill="#031527"></path><path d="M0 970L45.7 964.3C91.3 958.7 182.7 947.3 274.2 943.5C365.7 939.7 457.3 943.3 548.8 953.8C640.3 964.3 731.7 981.7 823 988.3C914.3 995 1005.7 991 1097 984C1188.3 977 1279.7 967 1371.2 967.8C1462.7 968.7 1554.3 980.3 1645.8 990.7C1737.3 1001 1828.7 1010 1874.3 1014.5L1920 1019L1920 1081L1874.3 1081C1828.7 1081 1737.3 1081 1645.8 1081C1554.3 1081 1462.7 1081 1371.2 1081C1279.7 1081 1188.3 1081 1097 1081C1005.7 1081 914.3 1081 823 1081C731.7 1081 640.3 1081 548.8 1081C457.3 1081 365.7 1081 274.2 1081C182.7 1081 91.3 1081 45.7 1081L0 1081Z" fill="#001122"></path></svg>